{"title":"Beyond.The.Mask.2015.1080p.BluRay.REMUX.AVC.DD5.1-RARBG","uid":12569033,"size":15729322700,"categoryP":"video","categoryS":"hd___movies","magnet":"?xt=urn:btih:0e7aeed3080a79335c87db880a96a23a5c193245&amp;dn=Beyond.The.Mask.2015.1080p.BluRay.REMUX.AVC.DD5.1-RARBG&amp;tr=udp%3A%2F%2Ftracker.leechers-paradise.org%3A6969&amp;tr=udp%3A%2F%2Fzer0day.ch%3A1337&amp;tr=udp%3A%2F%2Fopen.demonii.com%3A1337&amp;tr=udp%3A%2F%2Ftracker.coppersurfer.tk%3A6969&amp;tr=udp%3A%2F%2Fexodus.desync.com%3A6969","seeders":0,"leechers":2,"uploader":null,"files":4,"time":1444822791,"description":"Video\r\nID                                       : 1\r\nFormat                                   : AVC\r\nFormat/Info                              : Advanced Video Codec\r\nFormat profile                           :   \r\nFormat settings, CABAC                   : Yes\r\nFormat settings, ReFrames                : 4 frames\r\nFormat settings, GOP                     : M=3, N=23\r\nCodec ID                                 : V_MPEG4/ISO/AVC\r\nDuration                                 : 1h 44mn\r\nBit rate mode                            : Variable\r\nBit rate                                 : 18.5 Mbps\r\nMaximum bit rate                         : 24.0 Mbps\r\nWidth                                    : 1 920 pixels\r\nHeight                                   : 1 080 pixels\r\nDisplay aspect ratio                     : 16:9\r\nFrame rate mode                          : Constant\r\nFrame rate                               : 23.976 fps\r\nStandard                                 : NTSC\r\nColor space                              : YUV\r\nChroma subsampling                       : 4:2:0\r\nBit depth                                : 8 bits\r\nScan type                                : Progressive\r\nBits/(Pixel*Frame)                       : 0.371\r\nStream size                              : 13.5 GiB (92%)\r\nTitle                                    : Beyond.The.Mask.2015.1080p.BluRay.REMUX.AVC.DD5.1-RARBG\r\nLanguage                                 : English\r\nDefault                                  : No\r\nForced                                   : No\r\nColor range                              : Limited\r\nColor primaries                          : BT.709\r\nTransfer characteristics                 : BT.709\r\nMatrix coefficients                      : BT.709\r\n\r\nAudio #1\r\nID                                       : 2\r\nFormat                                   : AC-3\r\nFormat/Info                              : Audio Coding 3\r\nMode extension                           : CM (complete main)\r\nFormat settings, Endianness              : Big\r\nCodec ID                                 : A_AC3\r\nDuration                                 : 1h 44mn\r\nBit rate mode                            : Constant\r\nBit rate                                 : 576 Kbps\r\nChannel(s)                               : 6 channels\r\nChannel positions                        : Front: L C R, Side: L R, LFE\r\nSampling rate                            : 48.0 KHz\r\nCompression mode                         : Lossy\r\nStream size                              : 432 MiB (3%)\r\nTitle                                    : Beyond.The.Mask.2015.1080p.BluRay.REMUX.AVC.DD5.1-RARBG\r\nLanguage                                 : English\r\nDefault                                  : Yes\r\nForced                                   : No\r\n\r\nAudio #2\r\nID                                       : 3\r\nFormat                                   : AC-3\r\nFormat/Info                              : Audio Coding 3\r\nFormat profile                           : Dolby Digital\r\nMode extension                           : CM (complete main)\r\nFormat settings, Endianness              : Big\r\nCodec ID                                 : A_AC3\r\nDuration                                 : 1h 44mn\r\nBit rate mode                            : Constant\r\nBit rate                                 : 576 Kbps\r\nChannel(s)                               : 2 channels\r\nChannel positions                        : Front: L R\r\nSampling rate                            : 48.0 KHz\r\nCompression mode                         : Lossy\r\nStream size                              : 432 MiB (3%)\r\nTitle                                    : Beyond.The.Mask.2015.1080p.BluRay.REMUX.AVC.DD5.1-RARBG\r\nLanguage                                 : English\r\nDefault                                  : No\r\nForced                                   : No","torrent":{"xt":"urn:btih:0e7aeed3080a79335c87db880a96a23a5c193245","amp;dn":"Beyond.The.Mask.2015.1080p.BluRay.REMUX.AVC.DD5.1-RARBG","amp;tr":["udp%3A%2F%2Ftracker.leechers-paradise.org%3A6969","udp%3A%2F%2Fzer0day.ch%3A1337","udp%3A%2F%2Fopen.demonii.com%3A1337","udp%3A%2F%2Ftracker.coppersurfer.tk%3A6969","udp%3A%2F%2Fexodus.desync.com%3A6969"],"infoHash":"0e7aeed3080a79335c87db880a96a23a5c193245","infoHashBuffer":{"type":"Buffer","data":[14,122,238,211,8,10,121,51,92,135,219,136,10,150,162,58,92,25,50,69]},"announce":[],"urlList":[]}}